<svg width="1728" height="1117" viewBox="0 0 1728 1117" fill="none" xmlns="http://www.w3.org/2000/svg">
<g clip-path="url(#clip0_474_3)">
<rect width="1728" height="1117" fill="#1C1C1C"/>
<g filter="url(#filter0_f_474_3)">
<ellipse cx="0.5" cy="338" rx="182.5" ry="188" fill="url(#paint0_radial_474_3)" fill-opacity="0.4"/>
</g>
<path d="M95 324.861C95 322.951 93.4521 321.404 91.5427 321.404H50.164C47.0859 321.404 45.5425 317.684 47.7163 315.505L76.968 286.18C78.3153 284.829 78.3139 282.642 76.9649 281.293L57.7096 262.038C56.3594 260.688 54.1704 260.688 52.8202 262.038L23.4984 291.36C21.3205 293.538 17.5964 291.995 17.5964 288.915V247.457C17.5964 245.548 16.0485 244 14.1391 244H-13.1391C-15.0485 244 -16.5964 245.548 -16.5964 247.457V288.915C-16.5964 291.995 -20.3204 293.538 -22.4984 291.36L-51.8202 262.038C-53.1704 260.688 -55.3594 260.688 -56.7096 262.038L-75.9619 281.29C-77.312 282.641 -77.312 284.83 -75.9619 286.18L-46.6401 315.502C-44.4621 317.68 -46.0046 321.404 -49.0848 321.404H-90.5427C-92.4521 321.404 -94 322.951 -94 324.861V352.139C-94 354.049 -92.4521 355.596 -90.5427 355.596H-49.0848C-46.0046 355.596 -44.4621 359.32 -46.6401 361.498L-75.9619 390.82C-77.312 392.17 -77.312 394.359 -75.9619 395.71L-56.7066 414.965C-55.3576 416.314 -53.1709 416.315 -51.8202 414.968L-22.4954 385.716C-20.3161 383.542 -16.5964 385.086 -16.5964 388.164V429.543C-16.5964 431.452 -15.0485 433 -13.1391 433H14.1391C16.0485 433 17.5964 431.452 17.5964 429.543V388.164C17.5964 385.086 21.3161 383.542 23.4954 385.716L52.8202 414.968C54.1709 416.315 56.3576 416.314 57.7066 414.965L76.9649 395.707C78.3139 394.358 78.3153 392.171 76.968 390.82L47.7163 361.495C45.5425 359.316 47.0859 355.596 50.164 355.596H91.5427C93.4521 355.596 95 354.049 95 352.139V324.861Z" fill="#DDF23F"/>
<g filter="url(#filter1_f_474_3)">
<ellipse cx="1728.5" cy="863" rx="182.5" ry="188" fill="url(#paint1_radial_474_3)" fill-opacity="0.4"/>
</g>
<path d="M1823 849.861C1823 847.951 1821.45 846.404 1819.54 846.404H1778.16C1775.09 846.404 1773.54 842.684 1775.72 840.505L1804.97 811.18C1806.32 809.829 1806.31 807.642 1804.96 806.293L1785.71 787.038C1784.36 785.688 1782.17 785.688 1780.82 787.038L1751.5 816.36C1749.32 818.538 1745.6 816.995 1745.6 813.915V772.457C1745.6 770.548 1744.05 769 1742.14 769H1714.86C1712.95 769 1711.4 770.548 1711.4 772.457V813.915C1711.4 816.995 1707.68 818.538 1705.5 816.36L1676.18 787.038C1674.83 785.688 1672.64 785.688 1671.29 787.038L1652.04 806.29C1650.69 807.641 1650.69 809.83 1652.04 811.18L1681.36 840.502C1683.54 842.68 1682 846.404 1678.92 846.404H1637.46C1635.55 846.404 1634 847.951 1634 849.861V877.139C1634 879.049 1635.55 880.596 1637.46 880.596H1678.92C1682 880.596 1683.54 884.32 1681.36 886.498L1652.04 915.82C1650.69 917.17 1650.69 919.359 1652.04 920.71L1671.29 939.965C1672.64 941.314 1674.83 941.315 1676.18 939.968L1705.5 910.716C1707.68 908.542 1711.4 910.086 1711.4 913.164V954.543C1711.4 956.452 1712.95 958 1714.86 958H1742.14C1744.05 958 1745.6 956.452 1745.6 954.543V913.164C1745.6 910.086 1749.32 908.542 1751.5 910.716L1780.82 939.968C1782.17 941.315 1784.36 941.314 1785.71 939.965L1804.96 920.707C1806.31 919.358 1806.32 917.171 1804.97 915.82L1775.72 886.495C1773.54 884.316 1775.09 880.596 1778.16 880.596H1819.54C1821.45 880.596 1823 879.049 1823 877.139V849.861Z" fill="#DDF23F"/>
<path d="M1796.5 141L1781.89 158.025L1767.31 141L1752.73 158.025L1738.12 141L1723.54 158.025L1708.96 141L1694.38 158.025L1679.77 141L1665.19 158.025L1650.61 141L1636 158.025" stroke="#DDF23F" stroke-width="1.52249" stroke-miterlimit="10"/>
<path d="M1505 141L1519.61 158.025L1534.19 141L1548.77 158.025L1563.38 141L1577.96 158.025L1592.54 141L1607.12 158.025L1621.73 141L1636.31 158.025L1650.89 141L1665.5 158.025" stroke="#DDF23F" stroke-width="1.52249" stroke-miterlimit="10"/>
<path d="M1796.5 164L1781.89 181.025L1767.31 164L1752.73 181.025L1738.12 164L1723.54 181.025L1708.96 164L1694.38 181.025L1679.77 164L1665.19 181.025L1650.61 164L1636 181.025" stroke="#DDF23F" stroke-width="1.52249" stroke-miterlimit="10"/>
<path d="M1505 164L1519.61 181.025L1534.19 164L1548.77 181.025L1563.38 164L1577.96 181.025L1592.54 164L1607.12 181.025L1621.73 164L1636.31 181.025L1650.89 164L1665.5 181.025" stroke="#DDF23F" stroke-width="1.52249" stroke-miterlimit="10"/>
<path d="M303.315 812.332C292.404 814.065 282.385 816.803 274.127 820.094C274.778 811.03 274.338 800.368 272.53 788.986C267.821 758.685 255.263 735.57 244.659 737.254C234.054 738.939 229.38 764.792 234.191 795.077C235.983 806.357 238.885 816.732 242.313 825.148C233.441 824.578 223.067 825.08 212.156 826.813C181.77 831.64 158.552 844.08 160.231 854.65C161.91 865.219 187.84 869.852 218.226 865.025C229.341 863.259 239.462 860.505 247.704 857.112C246.898 866.513 247.23 877.818 249.119 889.708C253.93 919.993 266.386 943.124 276.99 941.44C287.595 939.755 292.269 913.902 287.458 883.617C285.553 871.625 282.468 860.759 278.702 852.188C287.676 852.742 298.168 852.326 309.181 850.576C339.567 845.749 362.785 833.309 361.106 822.739C359.631 812.138 333.701 807.505 303.315 812.332Z" fill="#5D31FF"/>
<path d="M864 948L878.364 1054.07L937.326 964.736L904.248 1066.53L996.13 1011.63L922.16 1088.99L1028.76 1079.39L928.552 1117L1028.76 1154.61L922.16 1145.01L996.13 1222.37L904.248 1167.47L937.326 1269.26L878.364 1179.93L864 1286L849.636 1179.93L790.674 1269.26L823.752 1167.47L731.87 1222.37L805.84 1145.01L699.237 1154.61L799.448 1117L699.237 1079.39L805.84 1088.99L731.87 1011.63L823.752 1066.53L790.674 964.736L849.636 1054.07L864 948Z" fill="#F78CD2"/>
<path d="M-51 1140C20.3333 1088 174.6 966.3 221 895.5" stroke="#5D31FF" stroke-linecap="round" stroke-dasharray="10 10"/>
</g>
<defs>
<filter id="filter0_f_474_3" x="-242" y="90" width="485" height="496" filterUnits="userSpaceOnUse" color-interpolation-filters="sRGB">
<feFlood flood-opacity="0" result="BackgroundImageFix"/>
<feBlend mode="normal" in="SourceGraphic" in2="BackgroundImageFix" result="shape"/>
<feGaussianBlur stdDeviation="30" result="effect1_foregroundBlur_474_3"/>
</filter>
<filter id="filter1_f_474_3" x="1486" y="615" width="485" height="496" filterUnits="userSpaceOnUse" color-interpolation-filters="sRGB">
<feFlood flood-opacity="0" result="BackgroundImageFix"/>
<feBlend mode="normal" in="SourceGraphic" in2="BackgroundImageFix" result="shape"/>
<feGaussianBlur stdDeviation="30" result="effect1_foregroundBlur_474_3"/>
</filter>
<radialGradient id="paint0_radial_474_3" cx="0" cy="0" r="1" gradientUnits="userSpaceOnUse" gradientTransform="translate(0.5 338) rotate(90) scale(188 182.5)">
<stop stop-color="#DDF23F"/>
<stop offset="1" stop-color="#DDF23F" stop-opacity="0"/>
</radialGradient>
<radialGradient id="paint1_radial_474_3" cx="0" cy="0" r="1" gradientUnits="userSpaceOnUse" gradientTransform="translate(1728.5 863) rotate(90) scale(188 182.5)">
<stop stop-color="#DDF23F"/>
<stop offset="1" stop-color="#DDF23F" stop-opacity="0"/>
</radialGradient>
<clipPath id="clip0_474_3">
<rect width="1728" height="1117" fill="white"/>
</clipPath>
</defs>
</svg>
