<svg xmlns="http://www.w3.org/2000/svg" viewBox="0 0 726.59 126.15"><defs><style>.cls-1{fill:#fff;}.cls-2{fill:#ddf23f;}.cls-3{fill:#5d31ff;}</style></defs><g id="Capa_2" data-name="Capa 2"><g id="Capa_3" data-name="Capa 3"><path class="cls-1" d="M45.6,126.15q-22.58,0-34.09-11.7T0,79.73V0H19.73V74.33q0,17,6.22,24.75t19.65,7.8q13.42,0,19.69-7.8t6.26-24.75V0H91.2V79.73q0,23-11.47,34.72T45.6,126.15Z"/><path class="cls-1" d="M157.65,126.15A43.51,43.51,0,0,1,141.19,123a42.85,42.85,0,0,1-13.54-8.66,40.82,40.82,0,0,1-9.19-13,38.77,38.77,0,0,1-3.34-16.05,39.29,39.29,0,0,1,3.19-15.71,40.5,40.5,0,0,1,8.93-13,42.26,42.26,0,0,1,13.5-8.86,43.4,43.4,0,0,1,16.76-3.22,47.22,47.22,0,0,1,14.36,2.18,36,36,0,0,1,11.36,5.69L176.55,65q-6.6-5-16.35-5a25.77,25.77,0,0,0-13.65,3.52,24.29,24.29,0,0,0-8.89,9.34,26.13,26.13,0,0,0-3.11,12.49,25.54,25.54,0,0,0,3.3,12.9,24.15,24.15,0,0,0,9.11,9.11,26.38,26.38,0,0,0,13.39,3.34,28.85,28.85,0,0,0,9-1.35,23,23,0,0,0,7.16-3.68l6.75,12.61a38.78,38.78,0,0,1-11.32,5.66A45.6,45.6,0,0,1,157.65,126.15Z"/><path class="cls-2" d="M241.35,126.15A48.36,48.36,0,0,1,218.88,121,40.34,40.34,0,0,1,203,106.58a38.82,38.82,0,0,1-5.85-21.23A38.71,38.71,0,0,1,203,64.09a40.32,40.32,0,0,1,15.86-14.36,51.3,51.3,0,0,1,44.93,0,40.32,40.32,0,0,1,15.86,14.36,38.71,38.71,0,0,1,5.85,21.26,38.82,38.82,0,0,1-5.85,21.23A40.34,40.34,0,0,1,263.81,121,48.32,48.32,0,0,1,241.35,126.15Zm0-16.05A25.34,25.34,0,0,0,254,107a23,23,0,0,0,8.85-8.74A25.24,25.24,0,0,0,266,85.35a25.24,25.24,0,0,0-3.22-12.86A23,23,0,0,0,254,63.75a26.7,26.7,0,0,0-25.16,0,23.28,23.28,0,0,0-8.85,8.74,25,25,0,0,0-3.27,12.86,25,25,0,0,0,3.27,12.82,23.25,23.25,0,0,0,8.85,8.78A25.11,25.11,0,0,0,241.35,110.1Z"/><path class="cls-1" d="M380.32,82v44.18H361.65V82.51c0-5.06-1.3-10.11-4.25-13.88-2.73-3.51-6.88-5.93-12.73-6.25a6.73,6.73,0,0,0-1.4-.13,6.45,6.45,0,0,0-1.61.17C330.93,63.3,325,72.87,325,82.51v43.64H306.3V82a68.53,68.53,0,0,1,.36-7.22.5.5,0,0,1,0-.12A32.67,32.67,0,0,1,331.2,47.88a78.71,78.71,0,0,1,24.32,0l.09,0a32.65,32.65,0,0,1,24.33,26.7.5.5,0,0,1,0,.12A68.53,68.53,0,0,1,380.32,82Z"/><path class="cls-1" d="M479.92,82v44.18H461.25V82.51c0-5.06-1.3-10.11-4.25-13.88-2.73-3.51-6.88-5.93-12.73-6.25a6.73,6.73,0,0,0-1.4-.13,6.45,6.45,0,0,0-1.61.17c-10.73.88-16.69,10.45-16.69,20.09v43.64H405.9V82a68.53,68.53,0,0,1,.36-7.22.5.5,0,0,1,0-.12A32.67,32.67,0,0,1,430.8,47.88a78.71,78.71,0,0,1,24.32,0l.09,0a32.65,32.65,0,0,1,24.33,26.7.5.5,0,0,1,0,.12A68.53,68.53,0,0,1,479.92,82Z"/><path class="cls-1" d="M543.82,126.15a45.24,45.24,0,0,1-22.05-5.32,40.32,40.32,0,0,1-15.38-14.55,39.12,39.12,0,0,1-5.62-20.78,39.87,39.87,0,0,1,3.19-16,40.47,40.47,0,0,1,8.92-13,41.76,41.76,0,0,1,29.66-11.93,43.13,43.13,0,0,1,21,5,35.55,35.55,0,0,1,14.1,13.84,40.64,40.64,0,0,1,5.06,20.51c0,.65-.09,1.21-.11,1.69s-.11,1.19-.26,2.13H519.82A23.55,23.55,0,0,0,523,99.9a21.69,21.69,0,0,0,8.81,8.29,27.72,27.72,0,0,0,13,3,26.73,26.73,0,0,0,12.42-2.81,29.91,29.91,0,0,0,9.86-8.59l13.57,7A38,38,0,0,1,565.46,121,45.52,45.52,0,0,1,543.82,126.15ZM520.64,76h43.58a20.12,20.12,0,0,0-11.55-15,23.73,23.73,0,0,0-10.2-2.14,25.94,25.94,0,0,0-10.58,2.06,18.71,18.71,0,0,0-7.54,5.93A20.29,20.29,0,0,0,520.64,76Z"/><path class="cls-1" d="M641.24,126.15A43.51,43.51,0,0,1,624.78,123a42.85,42.85,0,0,1-13.54-8.66,40.64,40.64,0,0,1-9.18-13,38.61,38.61,0,0,1-3.34-16.05,39.29,39.29,0,0,1,3.18-15.71,40.5,40.5,0,0,1,8.93-13,42.26,42.26,0,0,1,13.5-8.86,43.4,43.4,0,0,1,16.76-3.22,47.22,47.22,0,0,1,14.36,2.18,36,36,0,0,1,11.37,5.69L660.14,65q-6.6-5-16.35-5a25.77,25.77,0,0,0-13.65,3.52,24.29,24.29,0,0,0-8.89,9.34,26.13,26.13,0,0,0-3.11,12.49,25.54,25.54,0,0,0,3.3,12.9,24.1,24.1,0,0,0,9.12,9.11,26.31,26.31,0,0,0,13.38,3.34,28.85,28.85,0,0,0,9-1.35,23.1,23.1,0,0,0,7.17-3.68l6.75,12.61a38.84,38.84,0,0,1-11.33,5.66A45.6,45.6,0,0,1,641.24,126.15Z"/><path class="cls-1" d="M710.24,126.15q-10.35,0-16.12-6.75t-5.78-19V61.13H677.25V47h11.09V18.23H707V47h0V61.13h0v38q0,5,2,7.73a6.66,6.66,0,0,0,5.67,2.7,11.61,11.61,0,0,0,7.27-2.55l4.65,15a32.68,32.68,0,0,1-7.72,3A34.37,34.37,0,0,1,710.24,126.15Z"/><circle class="cls-2" cx="241.35" cy="85.98" r="28.45"/><circle class="cls-3" cx="718.8" cy="54.04" r="7.79"/></g></g></svg>